#!OML:ASF E:\VariousWalksJay\Project 1\Capture day 1\Session 1\Actor2.ASF
:FULLY-SPECIFIED
:DEGREES
689
root -3.32522 14.7128 25.0803 12.3245 -41.4978 3.06579
lowerback 26.0061 -3.33786 3.71119
upperback 17.4032 -4.32009 -2.89588
thorax 4.68768 -1.96925 -4.37092
lowerneck 4.07438 1.35438 2.72563
upperneck -19.7117 2.01948 -0.0681618
head -6.63432 0.707671 -0.608299
rclavicle 5.84427e-014 -8.74653e-014
rhumerus -30.5494 25.5544 -87.1645
rradius 90.4079
rwrist 10.4369
rhand -47.0973 4.45987
rfingers 7.12502
rthumb -19.8008 -24.5515
lclavicle 5.84427e-014 -8.74653e-014
lhumerus 47.8836 -27.4311 40.5207
lradius 90.329
lwrist 42.6875
lhand -31.9058 6.56753
lfingers 7.12502
lthumb -5.1578 36.4848
rfemur -63.9485 3.81098 19.483
rtibia 26.1096
rfoot -12.5125 -13.2591
rtoes -14.8261
lfemur -35.5545 15.5402 -33.6468
ltibia 76.229
lfoot -32.4893 6.6787
ltoes -22.2253
690
root -3.4579 14.7813 25.231 12.7551 -41.3208 3.02222
lowerback 25.3707 -3.38359 3.84865
upperback 17.1412 -4.34446 -2.82865
thorax 4.66423 -1.96951 -4.38449
lowerneck 4.05302 1.35994 2.66192
upperneck -19.3615 2.02731 -0.0293526
head -6.51925 0.721012 -0.583674
rclavicle 8.0309e-014 -8.82604e-014
rhumerus -31.6363 24.6413 -87.6456
rradius 88.7632
rwrist 10.9966
rhand -47.7162 5.17091
rfingers 7.12502
rthumb -20.3957 -23.778
lclavicle 8.0309e-014 -8.82604e-014
lhumerus 46.6907 -29.2123 41.301
lradius 90.4518
lwrist 42.1067
lhand -31.6465 6.16016
lfingers 7.12502
lthumb -4.90739 36.0833
rfemur -63.8336 3.20339 20.0802
rtibia 26.3494
rfoot -11.3064 -13.1682
rtoes -14.9584
lfemur -34.5868 15.6173 -33.4593
ltibia 74.9877
lfoot -32.1707 6.7671
ltoes -22.1085
691
root -3.59035 14.8516 25.3831 13.2023 -41.2078 2.9483
lowerback 24.7674 -3.41458 3.97978
upperback 16.8723 -4.35377 -2.76694
thorax 4.6233 -1.96375 -4.40284
lowerneck 3.99537 1.37159 2.60875
upperneck -18.9565 2.03886 -0.0141434
head -6.38029 0.73823 -0.567991
rclavicle 6.63941e-014 -3.73715e-014
rhumerus -32.6369 23.7279 -88.0521
rradius 87.0738
rwrist 11.5444
rhand -48.2741 5.84681
rfingers 7.12502
rthumb -20.9317 -23.0438
lclavicle 6.63941e-014 -3.73715e-014
lhumerus 45.4141 -30.985 42.1718
lradius 90.5435
lwrist 41.5803
lhand -31.403 5.72642
lfingers 7.12502
lthumb -4.67229 35.6549
rfemur -63.7786 2.57994 20.7695
rtibia 26.6433
rfoot -10.1212 -12.8887
rtoes -15.0923
lfemur -33.6021 15.6713 -33.2573
ltibia 73.6926
lfoot -31.8153 6.89373
ltoes -21.941
692
root -3.72276 14.9233 25.5367 13.6556 -41.1665 2.85468
lowerback 24.1995 -3.43148 4.08453
upperback 16.6005 -4.35209 -2.71134
thorax 4.5679 -1.95564 -4.41414
lowerneck 3.90492 1.39224 2.56581
upperneck -18.5088 2.05619 -0.0355651
head -6.22197 0.761011 -0.56547
rclavicle -1.11319e-014 2.5842e-014
rhumerus -33.5387 22.8461 -88.3819
rradius 85.345
rwrist 12.0663
rhand -48.7694 6.50376
rfingers 7.12502
rthumb -21.4076 -22.3336
lclavicle -1.11319e-014 2.5842e-014
lhumerus 44.047 -32.7279 43.1262
lradius 90.6005
lwrist 41.09
lhand -31.1951 5.27141
lfingers 7.12502
lthumb -4.47149 35.2042
rfemur -63.7658 1.99706 21.4727
rtibia 27.0101
rfoot -8.99519 -12.5398
rtoes -15.1794
lfemur -32.5953 15.7012 -33.0507
ltibia 72.3431
lfoot -31.4234 7.05501
ltoes -21.7252
693
root -3.85539 14.9958 25.6916 14.1126 -41.2016 2.74454
lowerback 23.6621 -3.43376 4.15881
upperback 16.3304 -4.33925 -2.66449
thorax 4.50542 -1.94499 -4.41929
lowerneck 3.80536 1.42337 2.52787
upperneck -18.0537 2.08336 -0.0871404
head -6.05977 0.790342 -0.573699
rclavicle -2.34566e-014 -1.31198e-014
rhumerus -34.3348 22.007 -88.6412
rradius 83.5926
rwrist 12.5352
rhand -49.1846 7.11115
rfingers 7.12502
rthumb -21.8063 -21.6803
lclavicle -2.34566e-014 -1.31198e-014
lhumerus 42.5999 -34.4317 44.1469
lradius 90.6193
lwrist 40.6146
lhand -31.0552 4.79889
lfingers 7.12502
lthumb -4.33641 34.7345
rfemur -63.7698 1.50184 22.1281
rtibia 27.4522
rfoot -7.98658 -12.2135
rtoes -14.9897
lfemur -31.5638 15.7074 -32.8454
ltibia 70.9402
lfoot -30.9977 7.25362
ltoes -21.4776
694
root -3.98847 15.0682 25.8479 14.5635 -41.3012 2.63358
lowerback 23.1473 -3.42815 4.19801
upperback 16.0657 -4.32409 -2.63064
thorax 4.44269 -1.93595 -4.41885
lowerneck 3.70653 1.46308 2.51358
upperneck -17.615 2.11801 -0.181848
head -5.90264 0.824205 -0.599802
rclavicle 2.54444e-014 -1.98785e-015
rhumerus -35.0242 21.2218 -88.8401
rradius 81.8193
rwrist 12.966
rhand -49.5279 7.68515
rfingers 7.12502
rthumb -22.1359 -21.0676
lclavicle 2.54444e-014 -1.98785e-015
lhumerus 41.0827 -36.083 45.2206
lradius 90.5961
lwrist 40.1546
lhand -30.9696 4.32586
lfingers 7.12502
lthumb -4.25378 34.2631
rfemur -63.7699 1.10195 22.698
rtibia 27.9627
rfoot -7.10837 -11.976
rtoes -14.6283
lfemur -30.5024 15.6766 -32.6544
ltibia 69.4832
lfoot -30.5465 7.47955
ltoes -21.1739
695
root -4.12195 15.14 26.0055 15.0122 -41.4584 2.51452
lowerback 22.6492 -3.42021 4.20938
upperback 15.8112 -4.3123 -2.60828
thorax 4.38686 -1.93054 -4.41459
lowerneck 3.63391 1.51472 2.50179
upperneck -17.2303 2.16714 -0.300163
head -5.76697 0.865279 -0.634889
rclavicle 1.03368e-014 5.84427e-014
rhumerus -35.6048 20.5048 -88.9815
rradius 80.032
rwrist 13.3569
rhand -49.8105 8.24368
rfingers 7.12502
rthumb -22.4072 -20.4767
lclavicle 1.03368e-014 5.84427e-014
lhumerus 39.5052 -37.672 46.3385
lradius 90.5196
lwrist 39.6681
lhand -30.9775 3.83612
lfingers 7.12502
lthumb -4.26139 33.7732
rfemur -63.7515 0.787302 23.2032
rtibia 28.52
rfoot -6.30057 -11.8532
rtoes -14.1849
lfemur -29.4102 15.6104 -32.4738
ltibia 67.974
lfoot -30.0743 7.73731
ltoes -20.8428
696
root -4.25587 15.2109 26.1643 15.4551 -41.6437 2.39472
lowerback 22.1566 -3.42302 4.20029
upperback 15.5679 -4.31884 -2.59358
thorax 4.34247 -1.93544 -4.40411
lowerneck 3.60619 1.58009 2.47113
upperneck -16.9221 2.23514 -0.421672
head -5.66318 0.915305 -0.669602
rclavicle 4.25399e-014 5.88403e-014
rhumerus -36.0925 19.8695 -89.0722
rradius 78.244
rwrist 13.7196
rhand -50.0456 8.78386
rfingers 7.12502
rthumb -22.6328 -19.9092
lclavicle 4.25399e-014 5.88403e-014
lhumerus 37.8626 -39.1783 47.5196
lradius 90.386
lwrist 39.1553
lhand -31.0304 3.36025
lfingers 7.12502
lthumb -4.31247 33.2963
rfemur -63.7108 0.519913 23.6599
rtibia 29.0942
rfoot -5.51992 -11.8014
rtoes -13.7081
lfemur -28.2852 15.4928 -32.3053
ltibia 66.4147
lfoot -29.5839 8.01716
ltoes -20.4639
697
root -4.39013 15.2804 26.3241 15.9026 -41.8378 2.26153
lowerback 21.6585 -3.43989 4.1962
upperback 15.337 -4.34391 -2.5853
thorax 4.3152 -1.94853 -4.40122
lowerneck 3.60691 1.65142 2.45113
upperneck -16.6746 2.31189 -0.554404
head -5.58301 0.968369 -0.710556
rclavicle -5.88403e-014 -8.38871e-014
rhumerus -36.5022 19.303 -89.123
rradius 76.466
rwrist 14.0648
rhand -50.2495 9.29572
rfingers 7.12502
rthumb -22.8285 -19.3733
lclavicle -5.88403e-014 -8.38871e-014
lhumerus 36.1731 -40.6008 48.7633
lradius 90.1909
lwrist 38.623
lhand -31.1029 2.9164
lfingers 7.12502
lthumb -4.38252 32.8511
rfemur -63.6507 0.275178 24.0974
rtibia 29.655
rfoot -4.73596 -11.7469
rtoes -13.3016
lfemur -27.1361 15.3254 -32.1372
ltibia 64.8143
lfoot -29.079 8.31303
ltoes -20.0334
698
root -4.52454 15.3478 26.4844 16.3611 -42.0157 2.11315
lowerback 21.1444 -3.47307 4.21592
upperback 15.117 -4.38748 -2.58132
thorax 4.30735 -1.96822 -4.41489
lowerneck 3.6271 1.7234 2.44633
upperneck -16.4709 2.39249 -0.682813
head -5.51974 1.02108 -0.75321
rclavicle -1.82882e-014 -4.37326e-015
rhumerus -36.8567 18.7882 -89.1436
rradius 74.7082
rwrist 14.4053
rhand -50.4353 9.77466
rfingers 7.12502
rthumb -23.0068 -18.8723
lclavicle -1.82882e-014 -4.37326e-015
lhumerus 34.4543 -41.9392 50.0723
lradius 89.9342
lwrist 38.097
lhand -31.1622 2.51409
lfingers 7.12502
lthumb -4.43972 32.4476
rfemur -63.5793 0.0248342 24.5369
rtibia 30.1789
rfoot -3.90577 -11.6082
rtoes -13.0303
lfemur -25.9756 15.1063 -31.965
ltibia 63.1861
lfoot -28.5622 8.61864
ltoes -19.5192
699
root -4.65885 15.4126 26.6443 16.8499 -42.1619 1.931
lowerback 20.6082 -3.52465 4.27073
upperback 14.9022 -4.45068 -2.57211
thorax 4.3155 -1.99477 -4.44128
lowerneck 3.66154 1.80079 2.43764
upperneck -16.2922 2.48428 -0.788918
head -5.46688 1.07742 -0.789081
rclavicle 1.26427e-013 -3.57812e-015
rhumerus -37.1811 18.335 -89.1397
rradius 72.9908
rwrist 14.7407
rhand -50.6107 10.1995
rfingers 7.12502
rthumb -23.1751 -18.4263
lclavicle 1.26427e-013 -3.57812e-015
lhumerus 32.6977 -43.1832 51.4636
lradius 89.618
lwrist 37.5802
lhand -31.2015 2.15809
lfingers 7.12502
lthumb -4.47775 32.0908
rfemur -63.5053 -0.241321 25.005
rtibia 30.6551
rfoot -3.02232 -11.3224
rtoes -12.6962
lfemur -24.8263 14.8464 -31.7721
ltibia 61.5494
lfoot -28.024 8.93021
ltoes -18.9848
700
root -4.7928 15.4748 26.8035 17.3753 -42.26 1.70964
lowerback 20.0463 -3.59202 4.37713
upperback 14.6887 -4.52817 -2.55205
thorax 4.33703 -2.02459 -4.48489
lowerneck 3.67666 1.87586 2.44278
upperneck -16.0926 2.57548 -0.88339
head -5.40425 1.13196 -0.823006
rclavicle 2.8625e-014 8.34896e-015
rhumerus -37.5023 17.9292 -89.1127
rradius 71.3317
rwrist 15.063
rhand -50.7807 10.5753
rfingers 7.12502
rthumb -23.3382 -18.0299
lclavicle 2.8625e-014 8.34896e-015
lhumerus 30.9161 -44.3361 52.9427
lradius 89.2515
lwrist 37.1055
lhand -31.1975 1.84391
lfingers 7.12502
lthumb -4.4739 31.7767
rfemur -63.4382 -0.531417 25.5132
rtibia 31.0898
rfoot -2.08554 -10.8783
rtoes -12.2896
lfemur -23.7043 14.5478 -31.5509
ltibia 59.9225
lfoot -27.4557 9.2463
ltoes -18.4266
701
root -4.92596 15.5344 26.961 17.9423 -42.3066 1.44498
lowerback 19.4661 -3.66977 4.53745
upperback 14.4728 -4.6132 -2.51917
thorax 4.3649 -2.05447 -4.54578
lowerneck 3.66811 1.94998 2.45449
upperneck -15.8643 2.66943 -0.95152
head -5.32894 1.18591 -0.849231
rclavicle 1.13705e-013 -5.4467e-014
rhumerus -37.8342 17.5609 -89.0708
rradius 69.7459
rwrist 15.3599
rhand -50.9308 10.9072
rfingers 7.12502
rthumb -23.4822 -17.6796
lclavicle 1.13705e-013 -5.4467e-014
lhumerus 29.1236 -45.3996 54.4964
lradius 88.8442
lwrist 36.6713
lhand -31.168 1.55271
lfingers 7.12502
lthumb -4.44534 31.4861
rfemur -63.3845 -0.822217 26.0436
rtibia 31.496
rfoot -1.14524 -10.3296
rtoes -11.5854
lfemur -22.6296 14.2232 -31.2954
ltibia 58.3286
lfoot -26.8447 9.55229
ltoes -17.8173
